<svg version="1.1" id="Layer_1" xmlns="http://www.w3.org/2000/svg" xmlns:xlink="http://www.w3.org/1999/xlink" x="0px" y="0px" viewBox="0 0 200 26" enable-background="new 0 0 200 26" xml:space="preserve" style="width: 220px;margin-left:5px">
    <g>

        <path fill="#1E84C6" d="M78.658,1.56v10.93c-1.32-1.439-3.24-2.35-5.36-2.35c-4.03,0-7.29,3.26-7.29,7.29
c0,4.021,3.26,7.291,7.29,7.291c2.12,0,4.04-0.91,5.36-2.361v2.08h6.61V1.56H78.658z M78.658,21.09
c-0.52,0.229-1.1,0.359-1.71,0.359c-2.32,0-4.21-1.891-4.21-4.221c0-2.34,1.89-4.229,4.21-4.229c0.61,0,1.19,0.13,1.71,0.359V21.09
z">
        </path>

        <path fill="#1E84C6" d="M16.368,3.669h-8.92l2.1,4.561l-7.21,16.31h3.8l1.73-3.92h7.41l1.89,4.101h8.92L16.368,3.669z
M8.788,18.549l2.71-6.119l2.82,6.119H8.788z">
        </path>

        <polygon fill="#1E84C6" points="36.098,22.439 42.228,22.439 42.228,24.721 27.158,24.721 33.788,12.96 27.628,12.96
27.628,10.681 42.728,10.681 	">

        </polygon>

        <path fill="#1E84C6" d="M63.108,14.92c-1.78-6.76-14.82-2.62-14.82-2.62l0.81,1.061c6.11-1.78,7.25,0.81,7.43,2.3v2.37
c-0.9-1.602-2.88-2.7-5.16-2.7c-3.15,0-5.71,2.101-5.71,4.7c0,2.59,2.56,4.689,5.71,4.689c2.28,0,4.25-1.101,5.16-2.689v2.689h6.79
V16.6C63.318,15.979,63.248,15.42,63.108,14.92z M56.528,20.85c-0.35,0.642-1.15,1.08-2.08,1.08c-1.27,0-2.29-0.81-2.29-1.81
c0-0.99,1.02-1.8,2.29-1.8c0.93,0,1.73,0.438,2.08,1.068V20.85z">
        </path>
    </g>

    <path fill="none" stroke="#1E84C6" stroke-width="1.2" stroke-miterlimit="10" d="M107.848,11.559
c1.356-0.999,2.178-2.272,2.178-3.658c0-3.035-3.875-5.514-8.807-5.732c-0.226-0.009-0.461-0.018-0.697-0.018H89.954v21.57h11.265
v-0.031c0.284,0.02,0.566,0.029,0.85,0.029c5.252,0,9.502-3.035,9.502-6.777C111.57,14.744,110.109,12.793,107.848,11.559z
M97.985,5.864c0.416-0.15,0.867-0.235,1.349-0.235c1.791,0,3.243,1.141,3.243,2.545c0,0.82-0.491,1.546-1.245,2.008
c-0.547,0.349-1.243,0.547-1.998,0.547c-0.283,0-0.557-0.028-0.82-0.084c-0.179-0.038-0.358-0.085-0.528-0.151L97.985,5.864
L97.985,5.864z M98.92,19.553c-0.321,0-0.632-0.027-0.935-0.085v-6.373c0.303-0.056,0.613-0.085,0.935-0.085
c0.896,0,1.714,0.227,2.395,0.613h0.009c1.048,0.594,1.727,1.564,1.727,2.658C103.049,18.082,101.2,19.553,98.92,19.553z">
    </path>

    <polygon fill="none" stroke="#1E84C6" stroke-width="1.2" stroke-miterlimit="10" points="143.298,21.137 148.766,21.137
148.766,23.721 134.568,23.721 141.816,11.474 135.04,11.474 135.04,8.825 150.596,8.825 ">

    </polygon>

    <path fill="none" stroke="#1E84C6" stroke-width="1.2" stroke-miterlimit="10" d="M190.604,12.152c0,2.008-1.726,3.63-3.854,3.63
c-1.735,0-3.215-1.075-3.696-2.565h-0.008c-0.754,0.01-1.33,0.426-1.755,0.943v9.561h-7.003V8.825h7.003v1.404
c0.651,0.226,1.574,0.255,2.631-0.537c0.009,0,0.009-0.01,0.019-0.01c0.143-0.113,0.313-0.245,0.461-0.396
c0.012-0.009,0.012-0.009,0.021-0.019c0.651-0.462,1.452-0.735,2.329-0.735C188.878,8.532,190.604,10.153,190.604,12.152z">
    </path>

    <path fill="none" stroke="#1E84C6" stroke-width="1.2" stroke-miterlimit="10" d="M170.893,13.217
c-1.914-7.249-15.886-2.808-15.886-2.808l0.867,1.141c6.543-1.915,7.769,0.867,7.957,2.46v2.545
c-0.962-1.715-3.084-2.894-5.524-2.894c-3.375,0-6.119,2.243-6.119,5.034c0,2.771,2.744,5.023,6.119,5.023
c2.44,0,4.553-1.179,5.524-2.885v2.885h7.276v-8.701C171.107,14.35,171.033,13.755,170.893,13.217z M163.831,19.57
c-0.369,0.688-1.228,1.16-2.226,1.16c-1.357,0-2.451-0.867-2.451-1.941c0-1.057,1.094-1.924,2.451-1.924
c0.998,0,1.855,0.472,2.226,1.141V19.57z">
    </path>

    <path fill="none" stroke="#1E84C6" stroke-width="1.2" stroke-miterlimit="10" d="M131.854,13.217
c-1.904-7.249-15.886-2.808-15.886-2.808l0.868,1.141c6.553-1.915,7.768,0.867,7.966,2.46v2.545
c-0.962-1.715-3.092-2.894-5.534-2.894c-3.373,0-6.117,2.243-6.117,5.034c0,2.771,2.744,5.023,6.117,5.023
c2.442,0,4.555-1.179,5.534-2.885v2.885h7.277v-8.701C132.079,14.35,132.004,13.755,131.854,13.217z M124.802,19.57
c-0.377,0.688-1.235,1.16-2.233,1.16c-1.357,0-2.451-0.867-2.451-1.941c0-1.057,1.094-1.924,2.451-1.924
c0.998,0,1.856,0.472,2.233,1.141V19.57z">
    </path>
    <rect x="93.563" y="3.781" fill="#FFFFFF" width="3.813" height="3.219">

    </rect>
</svg>